<?xml version="1.0" encoding="UTF-8"?>
<svg width="1016px" height="998px" viewBox="0 0 1016 998" version="1.1" xmlns="http://www.w3.org/2000/svg" xmlns:xlink="http://www.w3.org/1999/xlink">
    <!-- Generator: Sketch 51.3 (57544) - http://www.bohemiancoding.com/sketch -->
    <title>Group 2</title>
    <desc>Created with Sketch.</desc>
    <defs></defs>
    <g id="Page-1" stroke="none" stroke-width="1" fill="none" fill-rule="evenodd">
        <g id="Group-2">
            <rect id="Rectangle-6" fill="#FFFFFF" x="0" y="0" width="1016" height="998"></rect>
            <g id="Group" transform="translate(108.000000, 47.000000)">
                <rect id="Rectangle-2" fill="#FFFFFF" x="0" y="0" width="829" height="853"></rect>
                <rect id="Rectangle-4" fill="#845FFF" transform="translate(146.007832, 731.099605) rotate(-35.000000) translate(-146.007832, -731.099605) " x="25.0078321" y="715.599605" width="242" height="31" rx="8"></rect>
                <rect id="Rectangle-4" fill="#FF5FAD" transform="translate(380.500000, 676.500000) rotate(-35.000000) translate(-380.500000, -676.500000) " x="165" y="661" width="431" height="31" rx="8"></rect>
                <rect id="Rectangle-4" fill="#F6E950" transform="translate(146.007832, 622.099605) rotate(-35.000000) translate(-146.007832, -622.099605) " x="25.0078321" y="606.599605" width="242" height="31" rx="8"></rect>
                <rect id="Rectangle-4" fill="#5F73FF" transform="translate(326.000000, 601.500000) rotate(-35.000000) translate(-326.000000, -601.500000) " x="270" y="586" width="112" height="31" rx="8"></rect>
                <rect id="Rectangle-4" fill="#FE6161" transform="translate(449.000000, 413.500000) rotate(-35.000000) translate(-449.000000, -413.500000) " x="285" y="398" width="328" height="31" rx="8"></rect>
                <rect id="Rectangle-4" fill="#845FFF" transform="translate(680.500000, 455.500000) rotate(-35.000000) translate(-680.500000, -455.500000) " x="598" y="440" width="165" height="31" rx="8"></rect>
                <rect id="Rectangle-4" fill="#50E3C2" transform="translate(477.007832, 731.099605) rotate(-35.000000) translate(-477.007832, -731.099605) " x="356.007832" y="715.599605" width="242" height="31" rx="8"></rect>
                <rect id="Rectangle-4" fill="#845FFF" transform="translate(170.172817, 483.020110) rotate(-35.000000) translate(-170.172817, -483.020110) " x="19.6728174" y="467.52011" width="301" height="31" rx="8"></rect>
                <rect id="Rectangle-4" fill="#F6E950" transform="translate(449.000000, 283.500000) rotate(-35.000000) translate(-449.000000, -283.500000) " x="328" y="268" width="242" height="31" rx="8"></rect>
                <rect id="Rectangle-4" fill="#B7F579" transform="translate(514.000000, 471.500000) rotate(-35.000000) translate(-514.000000, -471.500000) " x="393" y="456" width="242" height="31" rx="8"></rect>
                <rect id="Rectangle-4" fill="#FE6161" transform="translate(164.029177, 378.718287) rotate(-35.000000) translate(-164.029177, -378.718287) " x="21.0291771" y="363.218287" width="286" height="31" rx="8"></rect>
            </g>
        </g>
    </g>
</svg>